<svg xmlns="http://www.w3.org/2000/svg" viewBox="0 0 640 512" role="img" aria-labelledby="title desc">
  <title id="title">M-Taka logo</title>
  <desc id="desc">A green recycling mark with city, leaves, and a clear M-Taka wordmark.</desc>
  <defs>
    <linearGradient id="leaf" x1="110" y1="92" x2="470" y2="316" gradientUnits="userSpaceOnUse">
      <stop offset="0" stop-color="#075f2d" />
      <stop offset="0.55" stop-color="#45b82e" />
      <stop offset="1" stop-color="#b7f34c" />
    </linearGradient>
    <linearGradient id="dark" x1="140" y1="124" x2="424" y2="320" gradientUnits="userSpaceOnUse">
      <stop offset="0" stop-color="#044f24" />
      <stop offset="1" stop-color="#0f7f31" />
    </linearGradient>
    <filter id="shadow" x="-20%" y="-20%" width="140%" height="140%">
      <feDropShadow dx="0" dy="8" stdDeviation="7" flood-color="#073b1d" flood-opacity="0.2" />
    </filter>
  </defs>

  <g filter="url(#shadow)">
    <path d="M190 111c49-76 142-88 228-54 20 8 24 30 32 54l38-13-50 82-93-24 42-19c-60-47-135-43-191 7l-6-33Z" fill="url(#leaf)" />
    <path d="M108 228c42-86 116-129 206-144l-19 44c-65 13-114 48-140 105l43 4-91 59-51-92 52 24Z" fill="url(#leaf)" />
    <path d="M130 319c-27-57-7-124 47-173l24 30c-37 40-48 88-24 130 26 46 84 58 148 37l12 37c-92 40-173 14-207-61Z" fill="url(#dark)" />
    <path d="M399 345c70-7 117-49 134-109l-43 4 51-88 56 86-41-3c-17 86-82 144-174 155l17-45Z" fill="url(#leaf)" />

    <path d="M252 191c22-2 44 8 56 28 15-2 31 5 41 18 7 10 8 23 4 37 18 10 26 28 22 48-43 10-86 8-128-8-14-23-17-46-8-69 5-13 12-24 22-32-6-7-9-14-9-22Z" fill="#fff" opacity="0.93" />
    <path d="M268 205c12 0 20 7 27 18-14 2-27 2-40 0 3-10 7-16 13-18Zm-21 52c13-8 27-8 44 0-10 13-23 19-39 17-4-5-6-11-5-17Zm62-2c16-7 31-3 45 10-8 12-21 18-37 17-9-7-11-16-8-27Zm-25 58c18-12 38-13 61-5-17 19-37 26-61 19-4-5-4-10 0-14Z" fill="#399b32" />

    <path d="M311 204h26v128h-26V204Zm39 41h23v87h-23v-87Zm-78 46h23v41h-23v-41Zm116-55 19 96h-31l12-96Z" fill="#117334" />
    <path d="M458 229l6 103h-15l6-103Zm-37 50 39-42 33 42" fill="none" stroke="#117334" stroke-width="9" stroke-linecap="round" stroke-linejoin="round" />

    <path d="M169 335c54-40 110-54 178-40-50 29-100 47-178 40Z" fill="#0b6d2f" />
    <path d="M322 340c66-24 126-18 181 17-69 13-126 7-181-17Z" fill="#75c941" />
    <path d="M200 366c84 17 167 17 252-1-79 49-166 49-252 1Z" fill="#064f24" />

    <text x="320" y="464" text-anchor="middle" font-family="Arial Black, Arial, sans-serif" font-size="92" font-weight="900" fill="#086325">mTAKA</text>
    <path d="M176 490c73-20 197-21 298-9-101 7-188 14-271 41 22-20 39-27-27-32Z" fill="#086325" />
  </g>
</svg>
